<svg class="case-herdt__logo-svg" viewBox="0 0 473 709" fill="none" xmlns="http://www.w3.org/2000/svg">
            <g class="case-herdt__logo-lines">
              
            </g>
<path d="M321.522 471.045H151.477V472.023H321.522V471.045Z" fill="#E4CCA7" stroke="#E4CCA7" stroke-width="2"/>
<path d="M236.512 472.07L236.201 471.869L170.425 429.405L170.717 428.932L236.512 322.051L301.737 429.405L236.512 472.07ZM171.976 429.053L236.508 470.71L300.217 429.053L236.508 324.229L171.976 429.053Z" fill="#E4CCA7" stroke="#E4CCA7" stroke-width="2"/>
<path d="M236.511 451.127L203.14 429.613L203.329 429.174L235.828 353.585L228.193 335.693L235.942 239.608H237.08L244.806 335.204L237.057 353.589L269.636 429.617L269.237 429.878L236.511 451.127ZM204.547 429.163L236.507 449.756L268.206 429.163L236.431 355.009L204.547 429.163ZM229.338 335.614L236.431 352.124L243.646 335.007L236.496 246.428L229.338 335.614Z" fill="#E4CCA7" stroke="#E4CCA7" stroke-width="2"/>
<path d="M172.1 429.022L171.022 428.657L236.5 237.477L301.977 428.66L300.899 429.022L236.492 241.005L172.1 429.022Z" fill="#E4CCA7" stroke="#E4CCA7" stroke-width="2"/>
<path d="M236.507 472.126L236.299 472.043L128.798 429.757L129.215 428.701L236.507 470.903L343.913 428.701L344.33 429.757L236.507 472.126Z" fill="#E4CCA7" stroke="#E4CCA7" stroke-width="2"/>
<path d="M386.579 429.003H86.5068V430.139H386.579V429.003Z" fill="#E4CCA7" stroke="#E4CCA7" stroke-width="2"/>
<path d="M170.671 428.958L150.449 471.088L151.475 471.579L171.697 429.449L170.671 428.958Z" fill="#E4CCA7" stroke="#E4CCA7" stroke-width="2"/>
<path d="M301.485 429.015L300.47 429.529L321.862 471.638L322.877 471.124L301.485 429.015Z" fill="#E4CCA7" stroke="#E4CCA7" stroke-width="2"/>
<path d="M433.909 21.4999H426.09V687.022H433.909V21.4999Z" fill="#E4CCA7"/>
<path d="M47.2115 21.6741H39.6577V686.979H47.2115V21.6741Z" fill="#E4CCA7"/>
<path d="M473 21.4999H387V29.3181H473V21.4999Z" fill="#E4CCA7"/>
<path d="M86 679.204H0V687.022H86V679.204Z" fill="#E4CCA7"/>
<path d="M473 679.204H387V687.022H473V679.204Z" fill="#E4CCA7"/>
<path d="M86 21.4999H0V29.3181H86V21.4999Z" fill="#E4CCA7"/>
<path d="M86.1555 687.013L85.856 686.68L387 21.4999L387.3 21.8369L86.1555 687.013Z" fill="#E4CCA7"/>
<path d="M0.286615 679.588L0 679.203L472.713 28.9336L473 29.318L0.286615 679.588Z" fill="#E4CCA7"/>
<path d="M386.999 687.022L85.9995 21.9888L86.3029 21.648L387.303 686.685L386.999 687.022Z" fill="#E4CCA7"/>
<path d="M472.727 679.595L0 29.318L0.273038 28.9318L473 679.205L472.727 679.595Z" fill="#E4CCA7"/>
<path d="M237.477 238.454H235.523V471.045H237.477V238.454Z" fill="#E4CCA7" stroke="#E4CCA7" stroke-width="2"/>
<path d="M365.688 0H365.309V708.5H365.688V0Z" fill="#E4CCA7"/>
<path d="M322.696 0.00756836H322.317V708.507H322.696V0.00756836Z" fill="#E4CCA7"/>
<path d="M279.696 0.00378418H279.317V708.515H279.696V0.00378418Z" fill="#E4CCA7"/>
<path d="M215.202 0.00378418H214.823V708.515H215.202V0.00378418Z" fill="#E4CCA7"/>
<path d="M129.201 0.00378418H128.822V708.523H129.201V0.00378418Z" fill="#E4CCA7"/>
<path d="M236.697 0H236.318V708.5H236.697V0Z" fill="#E4CCA7"/>
<path d="M193.761 0.00756836H193.382V708.507H193.761V0.00756836Z" fill="#E4CCA7"/>
<path d="M150.762 0.00378418H150.382V708.515H150.762V0.00378418Z" fill="#E4CCA7"/>
<path d="M172.146 0.00756836H171.767V708.507H172.146V0.00756836Z" fill="#E4CCA7"/>
<path d="M129.295 0.00756836H128.916V708.507H129.295V0.00756836Z" fill="#E4CCA7"/>
<path d="M86.2947 0.00378418H85.9155V708.515H86.2947V0.00378418Z" fill="#E4CCA7"/>
<path d="M107.679 0.00756836H107.3V708.507H107.679V0.00756836Z" fill="#E4CCA7"/>
<path d="M64.7332 0.00378418H64.354V708.523H64.7332V0.00378418Z" fill="#E4CCA7"/>
<path d="M86.2947 0.00378418H85.9155V708.515H86.2947V0.00378418Z" fill="#E4CCA7"/>
<path d="M64.8275 0.00756836H64.4482V708.507H64.8275V0.00756836Z" fill="#E4CCA7"/>
<path d="M21.8284 0.00378418H21.4492V708.515H21.8284V0.00378418Z" fill="#E4CCA7"/>
<path d="M43.2112 0.00756836H42.832V708.507H43.2112V0.00756836Z" fill="#E4CCA7"/>
<path d="M279.67 0.00378418H279.291V708.515H279.67V0.00378418Z" fill="#E4CCA7"/>
<path d="M301.221 0H300.841V708.5H301.221V0Z" fill="#E4CCA7"/>
<path d="M258.228 0.00756836H257.849V708.507H258.228V0.00756836Z" fill="#E4CCA7"/>
<path d="M344.311 0.00756836H343.932V708.507H344.311V0.00756836Z" fill="#E4CCA7"/>
<path d="M322.836 0H322.457V708.5H322.836V0Z" fill="#E4CCA7"/>
<path d="M408.604 0.00378418H408.225V708.515H408.604V0.00378418Z" fill="#E4CCA7"/>
<path d="M430.156 0H429.776V708.5H430.156V0Z" fill="#E4CCA7"/>
<path d="M387.163 0.00756836H386.784V708.507H387.163V0.00756836Z" fill="#E4CCA7"/>
<path d="M365.548 0.00756836H365.169V708.507H365.548V0.00756836Z" fill="#E4CCA7"/>
<path d="M451.631 0.00756836H451.251V708.507H451.631V0.00756836Z" fill="#E4CCA7"/>
<path d="M473 579.507H0.0200195V579.886H473V579.507Z" fill="#E4CCA7"/>
<path d="M472.996 472.16H0.0161133V472.539H472.996V472.16Z" fill="#E4CCA7"/>
<path d="M472.984 429.2H0.00390625V429.579H472.984V429.2Z" fill="#E4CCA7"/>
<path d="M472.992 386.282H0.00390625V386.661H472.992V386.282Z" fill="#E4CCA7"/>
<path d="M472.992 321.88H0.00390625V322.259H472.992V321.88Z" fill="#E4CCA7"/>
<path d="M472.992 235.995H0V236.374H472.992V235.995Z" fill="#E4CCA7"/>
<path d="M472.996 343.326H0.0161133V343.705H472.996V343.326Z" fill="#E4CCA7"/>
<path d="M472.993 300.635H0.0126953V301.014H472.993V300.635Z" fill="#E4CCA7"/>
<path d="M472.992 257.547H0.00390625V257.925H472.992V257.547Z" fill="#E4CCA7"/>
<path d="M472.993 278.901H0.0126953V279.28H472.993V278.901Z" fill="#E4CCA7"/>
<path d="M472.992 193.043H0.00390625V193.422H472.992V193.043Z" fill="#E4CCA7"/>
<path d="M472.993 214.503H0.0126953V214.882H472.993V214.503Z" fill="#E4CCA7"/>
<path d="M472.992 171.203H0V171.581H472.992V171.203Z" fill="#E4CCA7"/>
<path d="M472.992 128.637H0.00390625V129.016H472.992V128.637Z" fill="#E4CCA7"/>
<path d="M472.993 150.124H0.0126953V150.503H472.993V150.124Z" fill="#E4CCA7"/>
<path d="M472.996 407.751H0.0161133V408.129H472.996V407.751Z" fill="#E4CCA7"/>
<path d="M472.993 364.848H0.0126953V365.227H472.993V364.848Z" fill="#E4CCA7"/>
<path d="M472.993 450.677H0.0126953V451.055H472.993V450.677Z" fill="#E4CCA7"/>
<path d="M472.992 515.113H0.00390625V515.491H472.992V515.113Z" fill="#E4CCA7"/>
<path d="M472.996 536.569H0.0161133V536.948H472.996V536.569Z" fill="#E4CCA7"/>
<path d="M472.993 493.636H0.0126953V494.014H472.993V493.636Z" fill="#E4CCA7"/>
<path d="M472.993 558.042H0.0126953V558.421H472.993V558.042Z" fill="#E4CCA7"/>
<path d="M0.0200195 600.964H473V601.343H0.0200195" fill="#E4CCA7"/>
<path d="M0.00732422 643.897H472.995V644.276H0.00732422" fill="#E4CCA7"/>
<path d="M0.0200195 665.37H473V665.749H0.0200195" fill="#E4CCA7"/>
<path d="M0.0126953 622.436H472.993V622.815H0.0126953" fill="#E4CCA7"/>
<path d="M0.0126953 686.842H472.993V687.221H0.0126953" fill="#E4CCA7"/>
<path d="M472.992 86.0555H0.00390625V85.6768H472.992" fill="#E4CCA7"/>
<path d="M472.993 107.513H0.0126953V107.135H472.993" fill="#E4CCA7"/>
<path d="M472.992 64.2163H0V63.8376H472.992" fill="#E4CCA7"/>
<path d="M472.992 21.6505H0.00390625V21.2718H472.992" fill="#E4CCA7"/>
<path d="M472.993 43.1343H0.0126953V42.7556H472.993" fill="#E4CCA7"/>
<path d="M236.511 235.896L85.5594 428.882L85.1802 429.367L150.5 472.022H151.477L129.655 429.242L236.511 238.347L343.477 429.242L321.192 472.022H322.011L387.307 429.704L387.823 429.367L236.511 235.896ZM128.362 429.231L149.333 470.043L86.8374 429.106L233.117 242.084L128.362 429.231ZM323.686 470.043L344.755 429.219L239.913 242.084L386.173 429.083L323.686 470.043Z" fill="#E4CCA7" stroke="#E4CCA7" stroke-width="2"/>
</svg>